<svg width="28" height="26" viewBox="0 0 28 26" fill="none" xmlns="http://www.w3.org/2000/svg">
<path d="M17.041 3.79166C17.1957 3.79166 17.3441 3.84872 17.4535 3.95031L20.7533 7.01444C20.9811 7.22597 20.9811 7.56893 20.7533 7.78047L10.0288 17.7389C9.95556 17.8069 9.86407 17.8556 9.76379 17.88L5.29729 18.9633C5.09693 19.0119 4.88383 18.9582 4.73739 18.8222C4.59096 18.6862 4.53314 18.4884 4.58547 18.3023L5.75214 14.1549C5.77833 14.0617 5.83077 13.9768 5.90406 13.9087L16.6285 3.95031C16.7379 3.84872 16.8863 3.79166 17.041 3.79166Z" fill="#78BC5F"/>
<path d="M4.66663 20.8542C4.18338 20.8542 3.79163 21.2179 3.79163 21.6667C3.79163 22.1154 4.18338 22.4792 4.66663 22.4792H22.1666C22.6499 22.4792 23.0416 22.1154 23.0416 21.6667C23.0416 21.2179 22.6499 20.8542 22.1666 20.8542H4.66663Z" fill="#78BC5F"/>
</svg>
